<svg width="20" height="23" viewBox="0 0 20 23" fill="none" xmlns="http://www.w3.org/2000/svg">
<path d="M18.9745 15.5556C18.3716 17.2238 17.3532 18.7145 16.0016 19.9068C14.65 21.0992 13.0032 21.9598 11.1946 22.419C9.38592 22.8782 7.46624 22.923 5.59097 22.5498C3.71569 22.1766 1.93751 21.396 0.400391 20.271C2.97426 20.4397 5.49625 19.8308 7.59949 18.5329C9.70273 17.2351 11.2775 15.316 12.0948 13.0548C12.912 10.7937 12.9291 8.30836 12.1435 5.96044C11.358 3.61251 9.81073 1.52446 7.72689 0C9.62576 0.124041 11.4897 0.667312 13.1679 1.58583C14.8461 2.50435 16.2913 3.77229 17.3865 5.28702C18.4818 6.80175 19.1962 8.52068 19.4721 10.3046C19.748 12.0886 19.5775 13.8875 18.9745 15.5556Z" fill="#121212"/>
</svg>
